<?xml version="1.0" standalone="no"?>
<!DOCTYPE svg PUBLIC "-//W3C//DTD SVG 20010904//EN"
 "http://www.w3.org/TR/2001/REC-SVG-20010904/DTD/svg10.dtd">
<svg version="1.0" xmlns="http://www.w3.org/2000/svg"
 width="2732.000000pt" height="2048.000000pt" viewBox="0 0 2732.000000 2048.000000"
 preserveAspectRatio="xMidYMid meet">

<g transform="translate(0.000000,2048.000000) scale(0.100000,-0.100000)"
fill="#000000" stroke="none">
<path d="M17106 10311 c12 -5 25 -14 28 -20 4 -5 9 -594 13 -1308 3 -714 6
-1299 7 -1300 1 -1 200 -5 444 -9 l442 -7 0 204 c0 179 15 1543 22 1985 3 225
26 202 -299 288 -142 38 -337 90 -433 116 -183 50 -263 68 -224 51z"/>
<path d="M20581 10083 c11 -315 22 -4963 11 -4976 -5 -7 -12 -24 -16 -38 -6
-26 1 -31 240 -158 234 -125 284 -145 300 -120 4 7 6 167 5 358 0 190 5 1372
13 2626 14 2133 13 2281 -2 2296 -16 15 -515 189 -543 189 -12 0 -13 -30 -8
-177z"/>
<path d="M13582 10148 c2 -18 61 -50 335 -184 183 -89 339 -166 345 -171 8 -7
201 -8 536 -5 l522 5 0 188 0 189 -871 0 -870 0 3 -22z"/>
<path d="M18075 6699 c-352 -3 -702 -7 -778 -8 l-139 -1 3 -797 c2 -722 1
-801 -14 -829 -9 -17 -26 -34 -39 -37 -21 -6 -22 -8 -7 -23 19 -18 862 -374
887 -374 10 0 23 5 30 12 15 15 16 55 1 64 -12 7 -2 1664 10 1739 l7 40 714
17 c393 9 752 17 798 17 l82 1 0 89 c0 84 -1 89 -22 95 -26 7 -609 5 -1533 -5z"/>
<path d="M16151 6203 c-63 -176 -217 -429 -370 -607 -171 -199 -340 -333 -561
-445 -74 -38 -153 -78 -175 -89 -62 -32 -196 -45 -405 -40 -164 5 -191 8 -238
28 -51 22 -137 91 -311 249 -45 40 -81 67 -81 59 0 -25 129 -187 235 -297 405
-418 935 -569 1423 -406 323 109 606 351 794 683 30 53 65 118 76 144 l21 48
-170 162 c-93 90 -178 177 -188 193 -16 26 -19 55 -20 205 -2 96 -3 176 -5
177 -1 1 -12 -28 -25 -64z"/>
</g>
</svg>
